<?xml version="1.0" encoding="UTF-8"?>
<svg id="Layer_2" data-name="Layer 2" xmlns="http://www.w3.org/2000/svg" viewBox="0 0 142.68 222.76">
  <defs>
    <style>
      .cls-1, .cls-2, .cls-3 {
        fill: #e8cc9e;
      }

      .cls-4 {
        letter-spacing: 0em;
      }

      .cls-5, .cls-6 {
        fill: #4d3029;
      }

      .cls-2 {
        stroke-miterlimit: 10;
      }

      .cls-2, .cls-3 {
        stroke: #4d3029;
        stroke-width: 1.14px;
      }

      .cls-7 {
        letter-spacing: -.01em;
      }

      .cls-6 {
        font-family: Comfortaa-Bold, 'Comfortaa Bold';
        font-size: 44.01px;
        font-weight: 700;
      }

      .cls-3 {
        stroke-linecap: round;
        stroke-linejoin: round;
      }

      .cls-8 {
        letter-spacing: -.01em;
      }
    </style>
  </defs>
  <g id="OBJECTS">
    <g>
      <g>
        <path class="cls-5" d="M73.39,.07c-.91,.14-1.75,.5-2.44,1.25-1.38,1.49-1.87,3.79-2.43,5.68-1.4,4.74-2.2,9.64-2.46,14.57-.25,2.44-.14,4.89-.15,7.32,.03,1.22,.18,2.43,.27,3.65,.11,1.21,.15,2.42,.39,3.62,.39,2.4,.64,4.81,1.29,7.16l.83,3.53c.31,1.17,.73,2.32,1.09,3.47l1.13,3.45,1.33,3.71c.44,1.24,.92,2.47,1.34,3.73l1.18,3.8c.81,2.53,1.31,5.16,1.83,7.77,.26,1.31,.36,2.66,.51,3.98,.12,1.34,.27,2.66,.27,4.02,.21,5.37-.31,10.83-1.56,16.13-.63,2.64-1.5,5.25-2.61,7.74-1.16,2.48-2.47,4.88-4.42,6.93-.22,.23-.58,.24-.81,.02-.14-.13-.19-.31-.17-.48v-.08c.62-5.08,.47-10.03,.15-14.87-.36-4.85-.9-9.61-1.71-14.38-.8-4.75-1.5-9.52-2.27-14.35l-.54-3.64c-.2-1.21-.47-2.42-.71-3.63l-1.58-7.57c-.27-1.31-.59-2.6-.81-3.92l-.53-3.98c-.44-2.63-.47-5.33-.63-7.98-.1-1.33,.01-2.67,.05-4,.07-1.33,.07-2.66,.19-3.99,.32-2.65,.53-5.29,1.12-7.89,1.02-5.2,2.6-10.26,4.77-15.03,0-.02,.02-.04,.03-.06,1.13-2.53-.92-5.35-3.66-4.9C26.84,6.59,0,42.86,0,86.76c0,47.9,31.94,86.72,71.34,86.72s71.34-38.83,71.34-86.72c0-20.68-6.06-41.61-18.5-58.27C113.16,13.74,96.97,2.69,78.45,.46c-1.6-.19-3.44-.64-5.06-.39Z"/>
        <g>
          <path class="cls-3" d="M100.91,141.11c1.96,1.33,4.39,1.81,6.8,1.88,2.4,.03,4.81-.45,7.06-1.29,4.49-1.71,8.49-4.79,11.3-9.03,1.35-2.16,2.65-4.7,2.79-8.2,.01-.43,0-.87-.05-1.34-.04-.45-.1-.91-.22-1.38l-.17-.69c-.07-.25-.18-.54-.29-.81-.22-.53-.52-1.11-.9-1.63-.74-1.07-1.86-1.99-2.93-2.46-1.09-.49-2.1-.66-2.99-.71-1.77-.06-3.12,.33-4.34,.79-1.21,.47-2.26,1.09-3.24,1.77-.95,.73-1.86,1.46-2.64,2.35-.78,.88-1.53,1.82-1.96,2.98l.02,.66c.3-.25,1.01-.72,1.34-.94,1.32-.87,2.84-1.51,4.34-2.04,1.88-.64,3.89-1.15,5.77-.88,.92,.15,1.77,.55,2.2,1.29,.44,.72,.53,1.72,.47,2.64-.17,1.89-1.06,3.73-2.15,5.37-2.16,3.34-5.2,6.13-8.67,8.14-1.73,1.01-3.6,1.79-5.53,2.32-1.92,.55-3.94,.79-5.94,.62l-.06,.59Z"/>
          <ellipse class="cls-5" cx="69.5" cy="107.33" rx="41.09" ry="10.26"/>
          <path class="cls-2" d="M117.27,106.03s-.1,6.97-2.53,15.87c-4.21,15.43-15.42,36.67-45.23,37.39-47,1.14-47.76-53.26-47.76-53.26H117.27Z"/>
          <path class="cls-5" d="M73.73,119.91s19.43,1.99,40.08-5.97c0,0-5.12,34.3-34.11,41.89,0,0-4.36-6.06,0-13.84,4.36-7.77,6.82-12.7-5.97-22.08Z"/>
          <path class="cls-5" d="M37.44,117.59c-6.44-.52-11.37-3.27-11.37-3.27,0,0,5.88,31.84,25.21,39.61-9.44-11.85-14.66-23.93-13.84-36.34Z"/>
          <ellipse class="cls-2" cx="69.5" cy="106.03" rx="47.76" ry="11.56"/>
          <ellipse class="cls-5" cx="69.5" cy="107.33" rx="41.09" ry="10.26"/>
          <path class="cls-1" d="M37.83,105.78c0-1.43,1.03-2.79,2.87-4.01-4.47,1.37-7.15,3.12-7.15,5.03,0,3.43,8.68,6.36,20.85,7.49-9.88-1.65-16.57-4.84-16.57-8.5Z"/>
          <path class="cls-1" d="M104.72,106.4c0-1.03-.74-2.01-2.06-2.89,3.21,.99,5.14,2.25,5.14,3.62,0,2.47-6.25,4.58-15.01,5.39,7.11-1.19,11.93-3.48,11.93-6.12Z"/>
        </g>
        <path class="cls-1" d="M52.35,41.17c.29,3.82,.71,7.4,1.39,10.87,.36,1.73,.72,3.43,1.24,5.07,.22,.83,.53,1.63,.79,2.44l.46,1.19,.23,.59,.27,.66c1.42,3.54,2.43,7.2,3.1,10.91,.64,3.72,1,7.5,.65,11.34-1.76-3.42-3.18-6.83-4.56-10.23l-3.99-10.11-.24-.63-.25-.71-.5-1.41c-.24-.97-.56-1.92-.71-2.9-.4-1.95-.54-3.92-.52-5.88,.08-3.9,.83-7.79,2.64-11.21Z"/>
        <path class="cls-1" d="M81.35,9.17c4.56,.46,8.98,1.92,13.24,3.71,4.22,1.88,8.29,4.19,12.04,6.97,7.52,5.55,13.72,12.87,18.33,21,2.33,4.06,4.15,8.38,5.72,12.75,.69,2.22,1.47,4.41,1.98,6.68,.27,1.13,.59,2.24,.82,3.37l.64,3.41c1.58,9.1,1.88,18.34,.85,27.4-1.14-9.04-2.51-17.94-4.82-26.54l-.87-3.22c-.3-1.07-.67-2.11-.99-3.17-.63-2.12-1.44-4.18-2.2-6.25-.39-1.03-.85-2.03-1.26-3.05-.42-1.02-.85-2.03-1.35-3.01l-1.43-2.96-1.58-2.88c-4.32-7.61-9.76-14.58-16.38-20.39-3.3-2.9-6.86-5.56-10.66-7.88-3.79-2.34-7.8-4.38-12.08-5.95Z"/>
      </g>
      <text class="cls-6" transform="translate(15.28 211.76)"><tspan class="cls-8" x="0" y="0">C</tspan><tspan x="25.04" y="0">o</tspan><tspan class="cls-7" x="49.2" y="0">ff</tspan><tspan class="cls-4" x="74.29" y="0">e</tspan></text>
    </g>
  </g>
</svg>